<?xml version="1.0" standalone="no"?>
<!DOCTYPE svg PUBLIC "-//W3C//DTD SVG 1.1//EN" "http://www.w3.org/Graphics/SVG/1.1/DTD/svg11.dtd">
<svg width="100%" id="logo" height="100%" viewBox="0 0 1102 180" version="1.1" xmlns="http://www.w3.org/2000/svg" xmlns:xlink="http://www.w3.org/1999/xlink" xml:space="preserve" xmlns:serif="http://www.serif.com/" style="fill-rule:evenodd;clip-rule:evenodd;stroke-linejoin:round;stroke-miterlimit:1.41421;fill:white;">
  <g transform="matrix(1,0,0,1,-1970.7,-1951.34)">
    <g transform="matrix(1,0,0,1,1792,1792)">
      <g transform="matrix(4.22737,0,0,4.18244,184.408,-210.882)">
        <g transform="matrix(47.786,0,0,47.786,33.7725,129.662)">
          <path d="M0.078,-0.561L-0.002,-0.561L-0.002,-0.424L0.078,-0.424L0.079,-0.262C0.079,-0.241 0.079,-0.22 0.08,-0.2C0.084,-0.105 0.117,-0.014 0.24,0C0.296,0.005 0.346,-0.011 0.366,-0.01L0.341,-0.152C0.326,-0.152 0.301,-0.145 0.278,-0.154C0.255,-0.161 0.243,-0.185 0.241,-0.23C0.24,-0.241 0.24,-0.252 0.24,-0.265L0.24,-0.424L0.351,-0.424L0.351,-0.561L0.24,-0.561L0.24,-0.738L0.078,-0.738L0.078,-0.561Z" style="fill-rule:nonzero;"/>
        </g>
        <g transform="matrix(47.786,0,0,47.786,53.078,129.662)">
          <path d="M0.209,-0.577L0.047,-0.577L0.047,0L0.209,0L0.209,-0.299C0.209,-0.343 0.23,-0.418 0.309,-0.429C0.345,-0.435 0.377,-0.43 0.405,-0.425C0.419,-0.423 0.431,-0.421 0.441,-0.421L0.483,-0.567C0.473,-0.567 0.449,-0.577 0.411,-0.583C0.397,-0.584 0.381,-0.585 0.363,-0.585C0.295,-0.582 0.23,-0.543 0.209,-0.508L0.209,-0.577Z" style="fill-rule:nonzero;"/>
        </g>
        <g transform="matrix(47.786,0,0,47.786,77.4967,129.662)">
          <path d="M0.199,-0.575L0.037,-0.575L0.037,-0.239C0.037,-0.083 0.143,0.009 0.312,0.01C0.469,0.01 0.574,-0.075 0.584,-0.208C0.586,-0.226 0.586,-0.244 0.586,-0.264L0.587,-0.575L0.425,-0.575L0.425,-0.313C0.425,-0.285 0.424,-0.258 0.423,-0.233C0.418,-0.167 0.381,-0.132 0.312,-0.132C0.243,-0.132 0.206,-0.167 0.2,-0.233C0.199,-0.258 0.198,-0.285 0.199,-0.313L0.199,-0.575Z" style="fill-rule:nonzero;"/>
        </g>
        <g transform="matrix(47.786,0,0,47.786,107.267,129.662)">
          <path d="M0.119,-0.184L0.018,-0.115C0.061,-0.036 0.167,0.009 0.264,0.009C0.384,0.009 0.493,-0.078 0.493,-0.176C0.494,-0.338 0.205,-0.345 0.205,-0.41C0.205,-0.433 0.222,-0.454 0.266,-0.454C0.311,-0.454 0.347,-0.443 0.386,-0.409L0.479,-0.476C0.427,-0.545 0.331,-0.583 0.246,-0.583C0.133,-0.583 0.047,-0.486 0.047,-0.404C0.048,-0.262 0.297,-0.245 0.321,-0.179C0.324,-0.177 0.326,-0.175 0.326,-0.172C0.326,-0.147 0.302,-0.126 0.248,-0.126C0.195,-0.126 0.154,-0.144 0.119,-0.184Z" style="fill-rule:nonzero;"/>
        </g>
        <g transform="matrix(47.786,0,0,47.786,132.212,129.662)">
          <path d="M0.078,-0.561L-0.002,-0.561L-0.002,-0.424L0.078,-0.424L0.079,-0.262C0.079,-0.241 0.079,-0.22 0.08,-0.2C0.084,-0.105 0.117,-0.014 0.24,0C0.296,0.005 0.346,-0.011 0.366,-0.01L0.341,-0.152C0.326,-0.152 0.301,-0.145 0.278,-0.154C0.255,-0.161 0.243,-0.185 0.241,-0.23C0.24,-0.241 0.24,-0.252 0.24,-0.265L0.24,-0.424L0.351,-0.424L0.351,-0.561L0.24,-0.561L0.24,-0.738L0.078,-0.738L0.078,-0.561Z" style="fill-rule:nonzero;"/>
        </g>
        <g transform="matrix(47.786,0,0,47.786,151.517,129.662)">
          <path d="M0.193,-0.287C0.193,-0.378 0.251,-0.438 0.33,-0.438C0.408,-0.437 0.466,-0.378 0.466,-0.287L0.466,-0.284C0.465,-0.195 0.41,-0.136 0.33,-0.136C0.248,-0.136 0.193,-0.196 0.193,-0.287ZM0.625,-0.54C0.605,-0.546 0.583,-0.551 0.56,-0.555C0.552,-0.556 0.539,-0.554 0.522,-0.551C0.461,-0.576 0.375,-0.585 0.316,-0.584C0.302,-0.584 0.29,-0.583 0.279,-0.582C0.134,-0.57 0.025,-0.439 0.025,-0.287C0.025,-0.135 0.133,-0.004 0.279,0.008C0.36,0.014 0.419,-0.013 0.464,-0.056L0.464,0L0.625,0L0.625,-0.54Z" style="fill-rule:nonzero;"/>
        </g>
        <g transform="matrix(47.786,0,0,47.786,183.151,129.662)">
          <path d="M0.478,-0.287C0.478,-0.196 0.423,-0.136 0.341,-0.136C0.27,-0.136 0.217,-0.184 0.206,-0.259L0.206,-0.315C0.217,-0.39 0.27,-0.438 0.341,-0.438C0.42,-0.437 0.478,-0.378 0.478,-0.287ZM0.046,-0.861L0.046,0L0.149,0C0.149,-0.008 0.149,-0.041 0.153,-0.052C0.198,-0.019 0.257,0.004 0.336,0.009C0.353,0.009 0.371,0.009 0.39,0.008C0.53,-0.001 0.636,-0.122 0.644,-0.267C0.645,-0.283 0.645,-0.299 0.643,-0.315C0.632,-0.453 0.526,-0.572 0.39,-0.582C0.379,-0.584 0.367,-0.584 0.355,-0.584C0.31,-0.584 0.256,-0.575 0.206,-0.559L0.207,-0.861L0.046,-0.861Z" style="fill-rule:nonzero;"/>
        </g>
        <g transform="matrix(47.786,0,0,47.786,215.646,129.662)">
          <path d="M0.261,0C0.279,-0.02 0.312,-0.132 0.294,-0.153C0.27,-0.154 0.211,-0.16 0.199,-0.212C0.192,-0.231 0.187,-0.256 0.187,-0.288L0.184,-0.848L0.023,-0.848L0.025,-0.284C0.025,-0.266 0.026,-0.249 0.026,-0.232C0.032,-0.091 0.1,-0.004 0.261,0Z" style="fill-rule:nonzero;"/>
        </g>
        <g transform="matrix(47.786,0,0,47.786,230.603,129.662)">
          <path d="M0.197,-0.351C0.207,-0.411 0.25,-0.458 0.317,-0.458C0.388,-0.458 0.436,-0.403 0.441,-0.351L0.197,-0.351ZM0.456,-0.182C0.427,-0.143 0.375,-0.122 0.324,-0.127C0.259,-0.133 0.204,-0.178 0.194,-0.241L0.6,-0.241C0.6,-0.453 0.5,-0.584 0.314,-0.584C0.167,-0.584 0.028,-0.464 0.028,-0.287C0.028,-0.104 0.177,0.01 0.325,0.01C0.48,0.01 0.557,-0.076 0.59,-0.152L0.456,-0.182Z" style="fill-rule:nonzero;"/>
        </g>
      </g>
    </g>
    <g transform="matrix(1,0,0,1,1792,1792)">
      <g transform="matrix(216.017,-49.7064,49.606,215.581,201.231,348.896)">
        <path id="e-letter" d="M0.197,-0.351C0.207,-0.411 0.25,-0.458 0.317,-0.458C0.388,-0.458 0.436,-0.403 0.441,-0.351L0.197,-0.351ZM0.456,-0.181C0.427,-0.142 0.375,-0.122 0.324,-0.127C0.259,-0.133 0.204,-0.178 0.194,-0.241L0.6,-0.241C0.6,-0.453 0.5,-0.584 0.314,-0.584C0.167,-0.584 0.028,-0.464 0.028,-0.287C0.028,-0.104 0.177,0.01 0.325,0.01C0.48,0.01 0.556,-0.074 0.589,-0.15L0.456,-0.181Z" style="fill-rule:nonzero;"/>
      </g>
    </g>
  </g>
</svg>